<mxfile host="app.diagrams.net" modified="2023-04-22T16:16:43.547Z" agent="Mozilla/5.0 (Windows NT 10.0; Win64; x64) AppleWebKit/537.36 (KHTML, like Gecko) Chrome/112.0.0.0 Safari/537.36" etag="GAdzwDSH8knz4NgYVs-J" version="21.2.1" type="device" pages="4">
  <diagram name="Page-1" id="c7558073-3199-34d8-9f00-42111426c3f3">
    <mxGraphModel dx="1050" dy="1742" grid="1" gridSize="10" guides="1" tooltips="1" connect="1" arrows="1" fold="1" page="1" pageScale="1" pageWidth="826" pageHeight="1169" background="none" math="0" shadow="0">
      <root>
        <mxCell id="0" />
        <mxCell id="1" parent="0" />
        <mxCell id="xGPTfRWzs9NdpzeN6LXe-96" value="KHÁCH HÀNG" style="whiteSpace=wrap;align=center;verticalAlign=middle;fontStyle=1;strokeWidth=3;fillColor=#FFFFCC" parent="1" vertex="1">
          <mxGeometry x="105" y="-250" width="125" height="60" as="geometry" />
        </mxCell>
        <mxCell id="xGPTfRWzs9NdpzeN6LXe-97" value="NHÀ CUNG CẤP" style="whiteSpace=wrap;align=center;verticalAlign=middle;fontStyle=1;strokeWidth=3;fillColor=#FFFFCC" parent="1" vertex="1">
          <mxGeometry x="630" y="-250" width="120" height="60" as="geometry" />
        </mxCell>
        <mxCell id="xGPTfRWzs9NdpzeN6LXe-98" value="" style="ellipse;whiteSpace=wrap;html=1;aspect=fixed;" parent="1" vertex="1">
          <mxGeometry x="395.5" y="-260" width="99" height="99" as="geometry" />
        </mxCell>
        <mxCell id="xGPTfRWzs9NdpzeN6LXe-99" value="" style="endArrow=none;html=1;rounded=0;exitX=0;exitY=0;exitDx=0;exitDy=0;entryX=1;entryY=0;entryDx=0;entryDy=0;" parent="1" source="xGPTfRWzs9NdpzeN6LXe-98" target="xGPTfRWzs9NdpzeN6LXe-98" edge="1">
          <mxGeometry width="50" height="50" relative="1" as="geometry">
            <mxPoint x="390" y="-100" as="sourcePoint" />
            <mxPoint x="440" y="-150" as="targetPoint" />
          </mxGeometry>
        </mxCell>
        <mxCell id="xGPTfRWzs9NdpzeN6LXe-100" value="&lt;font style=&quot;font-size: 11px;&quot;&gt;&lt;b&gt;HỆ THỐNG CỬA HÀNG BÁN RAU MÁ&lt;/b&gt;&lt;/font&gt;" style="text;html=1;strokeColor=none;fillColor=none;align=center;verticalAlign=middle;whiteSpace=wrap;rounded=0;" parent="1" vertex="1">
          <mxGeometry x="404.5" y="-230" width="81" height="30" as="geometry" />
        </mxCell>
        <mxCell id="xGPTfRWzs9NdpzeN6LXe-103" value="0" style="text;html=1;strokeColor=none;fillColor=none;align=center;verticalAlign=middle;whiteSpace=wrap;rounded=0;" parent="1" vertex="1">
          <mxGeometry x="415" y="-260" width="60" height="20" as="geometry" />
        </mxCell>
        <mxCell id="xGPTfRWzs9NdpzeN6LXe-105" value="" style="endArrow=classic;html=1;rounded=0;exitX=1;exitY=0.25;exitDx=0;exitDy=0;entryX=0.09;entryY=0.218;entryDx=0;entryDy=0;entryPerimeter=0;" parent="1" source="xGPTfRWzs9NdpzeN6LXe-96" target="xGPTfRWzs9NdpzeN6LXe-98" edge="1">
          <mxGeometry width="50" height="50" relative="1" as="geometry">
            <mxPoint x="390" y="-140" as="sourcePoint" />
            <mxPoint x="440" y="-190" as="targetPoint" />
            <Array as="points">
              <mxPoint x="320" y="-250" />
            </Array>
          </mxGeometry>
        </mxCell>
        <mxCell id="xGPTfRWzs9NdpzeN6LXe-106" value="" style="endArrow=classic;html=1;rounded=0;exitX=1;exitY=0.5;exitDx=0;exitDy=0;entryX=0.009;entryY=0.436;entryDx=0;entryDy=0;entryPerimeter=0;" parent="1" source="xGPTfRWzs9NdpzeN6LXe-96" target="xGPTfRWzs9NdpzeN6LXe-98" edge="1">
          <mxGeometry width="50" height="50" relative="1" as="geometry">
            <mxPoint x="250" y="-170" as="sourcePoint" />
            <mxPoint x="300" y="-220" as="targetPoint" />
          </mxGeometry>
        </mxCell>
        <mxCell id="xGPTfRWzs9NdpzeN6LXe-108" value="Thông tin đặt và mua rau má" style="text;html=1;strokeColor=none;fillColor=none;align=center;verticalAlign=middle;whiteSpace=wrap;rounded=0;" parent="1" vertex="1">
          <mxGeometry x="236" y="-270" width="164" height="30" as="geometry" />
        </mxCell>
        <mxCell id="xGPTfRWzs9NdpzeN6LXe-109" value="Thông tin thanh toán" style="text;html=1;strokeColor=none;fillColor=none;align=center;verticalAlign=middle;whiteSpace=wrap;rounded=0;" parent="1" vertex="1">
          <mxGeometry x="259" y="-240" width="124" height="30" as="geometry" />
        </mxCell>
        <mxCell id="xGPTfRWzs9NdpzeN6LXe-110" value="Giao hàng" style="text;html=1;strokeColor=none;fillColor=none;align=center;verticalAlign=middle;whiteSpace=wrap;rounded=0;" parent="1" vertex="1">
          <mxGeometry x="288" y="-210" width="60" height="30" as="geometry" />
        </mxCell>
        <mxCell id="xGPTfRWzs9NdpzeN6LXe-111" value="" style="endArrow=classic;html=1;rounded=0;exitX=0.033;exitY=0.703;exitDx=0;exitDy=0;exitPerimeter=0;entryX=1;entryY=0.75;entryDx=0;entryDy=0;" parent="1" source="xGPTfRWzs9NdpzeN6LXe-98" target="xGPTfRWzs9NdpzeN6LXe-96" edge="1">
          <mxGeometry width="50" height="50" relative="1" as="geometry">
            <mxPoint x="390" y="-170" as="sourcePoint" />
            <mxPoint x="440" y="-220" as="targetPoint" />
            <Array as="points">
              <mxPoint x="310" y="-180" />
            </Array>
          </mxGeometry>
        </mxCell>
        <mxCell id="xGPTfRWzs9NdpzeN6LXe-112" style="edgeStyle=orthogonalEdgeStyle;rounded=0;orthogonalLoop=1;jettySize=auto;html=1;exitX=0.5;exitY=1;exitDx=0;exitDy=0;" parent="1" source="xGPTfRWzs9NdpzeN6LXe-110" target="xGPTfRWzs9NdpzeN6LXe-110" edge="1">
          <mxGeometry relative="1" as="geometry" />
        </mxCell>
        <mxCell id="xGPTfRWzs9NdpzeN6LXe-113" value="" style="endArrow=classic;html=1;rounded=0;entryX=0;entryY=0.25;entryDx=0;entryDy=0;exitX=0.938;exitY=0.234;exitDx=0;exitDy=0;exitPerimeter=0;" parent="1" source="xGPTfRWzs9NdpzeN6LXe-98" target="xGPTfRWzs9NdpzeN6LXe-97" edge="1">
          <mxGeometry width="50" height="50" relative="1" as="geometry">
            <mxPoint x="390" y="-170" as="sourcePoint" />
            <mxPoint x="440" y="-220" as="targetPoint" />
            <Array as="points">
              <mxPoint x="560" y="-240" />
            </Array>
          </mxGeometry>
        </mxCell>
        <mxCell id="xGPTfRWzs9NdpzeN6LXe-114" value="Đơn đặt hàng" style="text;html=1;strokeColor=none;fillColor=none;align=center;verticalAlign=middle;whiteSpace=wrap;rounded=0;" parent="1" vertex="1">
          <mxGeometry x="520" y="-265" width="100" height="30" as="geometry" />
        </mxCell>
        <mxCell id="xGPTfRWzs9NdpzeN6LXe-116" value="" style="endArrow=classic;html=1;rounded=0;exitX=1;exitY=0.5;exitDx=0;exitDy=0;entryX=0.013;entryY=0.647;entryDx=0;entryDy=0;entryPerimeter=0;" parent="1" source="xGPTfRWzs9NdpzeN6LXe-98" target="xGPTfRWzs9NdpzeN6LXe-97" edge="1">
          <mxGeometry width="50" height="50" relative="1" as="geometry">
            <mxPoint x="470" y="-140" as="sourcePoint" />
            <mxPoint x="520" y="-190" as="targetPoint" />
          </mxGeometry>
        </mxCell>
        <mxCell id="xGPTfRWzs9NdpzeN6LXe-117" value="Thông tin thanh toán" style="text;html=1;strokeColor=none;fillColor=none;align=center;verticalAlign=middle;whiteSpace=wrap;rounded=0;" parent="1" vertex="1">
          <mxGeometry x="500" y="-240" width="130" height="30" as="geometry" />
        </mxCell>
        <mxCell id="xGPTfRWzs9NdpzeN6LXe-121" value="" style="endArrow=classic;html=1;rounded=0;exitX=0;exitY=1;exitDx=0;exitDy=0;entryX=1.003;entryY=0.695;entryDx=0;entryDy=0;entryPerimeter=0;" parent="1" source="xGPTfRWzs9NdpzeN6LXe-97" target="xGPTfRWzs9NdpzeN6LXe-98" edge="1">
          <mxGeometry width="50" height="50" relative="1" as="geometry">
            <mxPoint x="630" y="-110" as="sourcePoint" />
            <mxPoint x="680" y="-160" as="targetPoint" />
          </mxGeometry>
        </mxCell>
        <mxCell id="xGPTfRWzs9NdpzeN6LXe-123" value="Thông tin đơn hàng" style="text;html=1;strokeColor=none;fillColor=none;align=center;verticalAlign=middle;whiteSpace=wrap;rounded=0;" parent="1" vertex="1">
          <mxGeometry x="496" y="-200" width="119" height="30" as="geometry" />
        </mxCell>
        <mxCell id="z0fRXJGk2dt3rIh9iu31-1" style="edgeStyle=orthogonalEdgeStyle;rounded=0;orthogonalLoop=1;jettySize=auto;html=1;exitX=0.5;exitY=1;exitDx=0;exitDy=0;" parent="1" source="xGPTfRWzs9NdpzeN6LXe-100" target="xGPTfRWzs9NdpzeN6LXe-100" edge="1">
          <mxGeometry relative="1" as="geometry" />
        </mxCell>
      </root>
    </mxGraphModel>
  </diagram>
  <diagram id="LvzEvN8yiEUXbTWXWUOl" name="Trang-2">
    <mxGraphModel dx="1050" dy="1423" grid="1" gridSize="10" guides="1" tooltips="1" connect="1" arrows="1" fold="1" page="1" pageScale="1" pageWidth="1100" pageHeight="850" math="0" shadow="0">
      <root>
        <mxCell id="0" />
        <mxCell id="1" parent="0" />
        <mxCell id="tb5FULyi-qziSNYO-h4u-123" value="KHÁCH HÀNG" style="whiteSpace=wrap;align=center;verticalAlign=middle;fontStyle=1;strokeWidth=3;fillColor=#FFFFCC" parent="1" vertex="1">
          <mxGeometry x="201" y="-340" width="90" height="60" as="geometry" />
        </mxCell>
        <mxCell id="tb5FULyi-qziSNYO-h4u-124" value="NHÀ CUNG CẤP" style="whiteSpace=wrap;align=center;verticalAlign=middle;fontStyle=1;strokeWidth=3;fillColor=#FFFFCC" parent="1" vertex="1">
          <mxGeometry x="730" y="-340" width="90" height="60" as="geometry" />
        </mxCell>
        <mxCell id="tb5FULyi-qziSNYO-h4u-125" value="" style="ellipse;whiteSpace=wrap;html=1;aspect=fixed;" parent="1" vertex="1">
          <mxGeometry x="401" y="-350" width="90" height="90" as="geometry" />
        </mxCell>
        <mxCell id="tb5FULyi-qziSNYO-h4u-126" value="" style="ellipse;whiteSpace=wrap;html=1;aspect=fixed;" parent="1" vertex="1">
          <mxGeometry x="570" y="-350" width="90" height="90" as="geometry" />
        </mxCell>
        <mxCell id="tb5FULyi-qziSNYO-h4u-127" value="" style="endArrow=none;html=1;rounded=0;exitX=0;exitY=0;exitDx=0;exitDy=0;entryX=1;entryY=0;entryDx=0;entryDy=0;" parent="1" source="tb5FULyi-qziSNYO-h4u-125" target="tb5FULyi-qziSNYO-h4u-125" edge="1">
          <mxGeometry width="50" height="50" relative="1" as="geometry">
            <mxPoint x="420" y="-270" as="sourcePoint" />
            <mxPoint x="470" y="-320" as="targetPoint" />
          </mxGeometry>
        </mxCell>
        <mxCell id="tb5FULyi-qziSNYO-h4u-128" value="" style="endArrow=none;html=1;rounded=0;exitX=0;exitY=0;exitDx=0;exitDy=0;entryX=1;entryY=0;entryDx=0;entryDy=0;" parent="1" source="tb5FULyi-qziSNYO-h4u-126" target="tb5FULyi-qziSNYO-h4u-126" edge="1">
          <mxGeometry width="50" height="50" relative="1" as="geometry">
            <mxPoint x="640" y="-260" as="sourcePoint" />
            <mxPoint x="690" y="-310" as="targetPoint" />
          </mxGeometry>
        </mxCell>
        <mxCell id="tb5FULyi-qziSNYO-h4u-129" value="" style="ellipse;whiteSpace=wrap;html=1;aspect=fixed;" parent="1" vertex="1">
          <mxGeometry x="490" y="-220" width="90" height="90" as="geometry" />
        </mxCell>
        <mxCell id="tb5FULyi-qziSNYO-h4u-130" value="" style="endArrow=none;html=1;rounded=0;exitX=0;exitY=0;exitDx=0;exitDy=0;entryX=1;entryY=0;entryDx=0;entryDy=0;" parent="1" source="tb5FULyi-qziSNYO-h4u-129" target="tb5FULyi-qziSNYO-h4u-129" edge="1">
          <mxGeometry width="50" height="50" relative="1" as="geometry">
            <mxPoint x="510" y="-130" as="sourcePoint" />
            <mxPoint x="560" y="-180" as="targetPoint" />
          </mxGeometry>
        </mxCell>
        <mxCell id="tb5FULyi-qziSNYO-h4u-131" value="1" style="text;html=1;strokeColor=none;fillColor=none;align=center;verticalAlign=middle;whiteSpace=wrap;rounded=0;" parent="1" vertex="1">
          <mxGeometry x="421" y="-350" width="60" height="20" as="geometry" />
        </mxCell>
        <mxCell id="tb5FULyi-qziSNYO-h4u-132" value="2" style="text;html=1;strokeColor=none;fillColor=none;align=center;verticalAlign=middle;whiteSpace=wrap;rounded=0;" parent="1" vertex="1">
          <mxGeometry x="585" y="-360" width="60" height="30" as="geometry" />
        </mxCell>
        <mxCell id="tb5FULyi-qziSNYO-h4u-133" value="3" style="text;html=1;strokeColor=none;fillColor=none;align=center;verticalAlign=middle;whiteSpace=wrap;rounded=0;" parent="1" vertex="1">
          <mxGeometry x="505" y="-230" width="60" height="30" as="geometry" />
        </mxCell>
        <mxCell id="tb5FULyi-qziSNYO-h4u-137" value="" style="endArrow=classic;html=1;rounded=0;exitX=1;exitY=0.25;exitDx=0;exitDy=0;entryX=0;entryY=0;entryDx=0;entryDy=0;" parent="1" source="tb5FULyi-qziSNYO-h4u-123" target="tb5FULyi-qziSNYO-h4u-138" edge="1">
          <mxGeometry width="50" height="50" relative="1" as="geometry">
            <mxPoint x="306" y="-300" as="sourcePoint" />
            <mxPoint x="356" y="-350" as="targetPoint" />
            <Array as="points">
              <mxPoint x="340" y="-340" />
            </Array>
          </mxGeometry>
        </mxCell>
        <mxCell id="tb5FULyi-qziSNYO-h4u-138" value="Xử lý bán nước rau má" style="text;html=1;strokeColor=none;fillColor=none;align=center;verticalAlign=middle;whiteSpace=wrap;rounded=0;" parent="1" vertex="1">
          <mxGeometry x="405" y="-330" width="80" height="45" as="geometry" />
        </mxCell>
        <mxCell id="tb5FULyi-qziSNYO-h4u-139" value="Xử lý đơn đặt hàng từ nhà cung cấp" style="text;html=1;strokeColor=none;fillColor=none;align=center;verticalAlign=middle;whiteSpace=wrap;rounded=0;" parent="1" vertex="1">
          <mxGeometry x="585" y="-315" width="60" height="30" as="geometry" />
        </mxCell>
        <mxCell id="tb5FULyi-qziSNYO-h4u-141" value="" style="endArrow=classic;html=1;rounded=0;exitX=0;exitY=0.75;exitDx=0;exitDy=0;entryX=1;entryY=0.75;entryDx=0;entryDy=0;" parent="1" source="tb5FULyi-qziSNYO-h4u-138" target="tb5FULyi-qziSNYO-h4u-123" edge="1">
          <mxGeometry width="50" height="50" relative="1" as="geometry">
            <mxPoint x="370" y="-150" as="sourcePoint" />
            <mxPoint x="420" y="-200" as="targetPoint" />
            <Array as="points">
              <mxPoint x="350" y="-290" />
            </Array>
          </mxGeometry>
        </mxCell>
        <mxCell id="tb5FULyi-qziSNYO-h4u-142" value="" style="endArrow=classic;html=1;rounded=0;exitX=0.953;exitY=0.251;exitDx=0;exitDy=0;exitPerimeter=0;entryX=0;entryY=0.25;entryDx=0;entryDy=0;" parent="1" source="tb5FULyi-qziSNYO-h4u-126" target="tb5FULyi-qziSNYO-h4u-124" edge="1">
          <mxGeometry width="50" height="50" relative="1" as="geometry">
            <mxPoint x="670" y="-170" as="sourcePoint" />
            <mxPoint x="720" y="-220" as="targetPoint" />
            <Array as="points">
              <mxPoint x="690" y="-330" />
            </Array>
          </mxGeometry>
        </mxCell>
        <mxCell id="tb5FULyi-qziSNYO-h4u-143" value="" style="endArrow=classic;html=1;rounded=0;exitX=0;exitY=0.75;exitDx=0;exitDy=0;" parent="1" source="tb5FULyi-qziSNYO-h4u-124" target="tb5FULyi-qziSNYO-h4u-126" edge="1">
          <mxGeometry width="50" height="50" relative="1" as="geometry">
            <mxPoint x="740" y="-270" as="sourcePoint" />
            <mxPoint x="560" y="-210" as="targetPoint" />
            <Array as="points">
              <mxPoint x="690" y="-280" />
            </Array>
          </mxGeometry>
        </mxCell>
        <mxCell id="tb5FULyi-qziSNYO-h4u-144" value="" style="endArrow=classic;html=1;rounded=0;exitX=1;exitY=1;exitDx=0;exitDy=0;" parent="1" source="tb5FULyi-qziSNYO-h4u-125" target="tb5FULyi-qziSNYO-h4u-129" edge="1">
          <mxGeometry width="50" height="50" relative="1" as="geometry">
            <mxPoint x="510" y="-160" as="sourcePoint" />
            <mxPoint x="560" y="-210" as="targetPoint" />
          </mxGeometry>
        </mxCell>
        <mxCell id="tb5FULyi-qziSNYO-h4u-145" value="" style="endArrow=classic;html=1;rounded=0;entryX=1;entryY=0.5;entryDx=0;entryDy=0;" parent="1" source="tb5FULyi-qziSNYO-h4u-139" target="tb5FULyi-qziSNYO-h4u-133" edge="1">
          <mxGeometry width="50" height="50" relative="1" as="geometry">
            <mxPoint x="570" y="-60" as="sourcePoint" />
            <mxPoint x="620" y="-110" as="targetPoint" />
          </mxGeometry>
        </mxCell>
        <mxCell id="tb5FULyi-qziSNYO-h4u-146" value="Xử lý kế toán" style="text;html=1;strokeColor=none;fillColor=none;align=center;verticalAlign=middle;whiteSpace=wrap;rounded=0;" parent="1" vertex="1">
          <mxGeometry x="510" y="-190" width="60" height="30" as="geometry" />
        </mxCell>
        <mxCell id="tb5FULyi-qziSNYO-h4u-147" value="" style="endArrow=classic;html=1;rounded=0;exitX=0.5;exitY=1;exitDx=0;exitDy=0;entryX=0;entryY=0.5;entryDx=0;entryDy=0;" parent="1" source="tb5FULyi-qziSNYO-h4u-123" target="tb5FULyi-qziSNYO-h4u-129" edge="1">
          <mxGeometry width="50" height="50" relative="1" as="geometry">
            <mxPoint x="510" y="-170" as="sourcePoint" />
            <mxPoint x="560" y="-220" as="targetPoint" />
            <Array as="points">
              <mxPoint x="360" y="-220" />
            </Array>
          </mxGeometry>
        </mxCell>
        <mxCell id="tb5FULyi-qziSNYO-h4u-148" value="" style="endArrow=classic;html=1;rounded=0;exitX=1;exitY=0.5;exitDx=0;exitDy=0;entryX=0.5;entryY=1;entryDx=0;entryDy=0;" parent="1" source="tb5FULyi-qziSNYO-h4u-129" target="tb5FULyi-qziSNYO-h4u-124" edge="1">
          <mxGeometry width="50" height="50" relative="1" as="geometry">
            <mxPoint x="510" y="-170" as="sourcePoint" />
            <mxPoint x="560" y="-220" as="targetPoint" />
            <Array as="points">
              <mxPoint x="690" y="-210" />
            </Array>
          </mxGeometry>
        </mxCell>
        <mxCell id="tb5FULyi-qziSNYO-h4u-150" value="Thông tin hóa đơn" style="text;html=1;strokeColor=none;fillColor=none;align=center;verticalAlign=middle;whiteSpace=wrap;rounded=0;" parent="1" vertex="1">
          <mxGeometry x="294" y="-360" width="106" height="30" as="geometry" />
        </mxCell>
        <mxCell id="tb5FULyi-qziSNYO-h4u-152" value="Giao nước" style="text;html=1;strokeColor=none;fillColor=none;align=center;verticalAlign=middle;whiteSpace=wrap;rounded=0;" parent="1" vertex="1">
          <mxGeometry x="317" y="-315" width="60" height="30" as="geometry" />
        </mxCell>
        <mxCell id="tb5FULyi-qziSNYO-h4u-153" value="Đơn đặt hàng" style="text;html=1;strokeColor=none;fillColor=none;align=center;verticalAlign=middle;whiteSpace=wrap;rounded=0;" parent="1" vertex="1">
          <mxGeometry x="645" y="-355" width="95" height="30" as="geometry" />
        </mxCell>
        <mxCell id="tb5FULyi-qziSNYO-h4u-154" value="Thông tin đơn hàng nhập từ ncc" style="text;html=1;strokeColor=none;fillColor=none;align=center;verticalAlign=middle;whiteSpace=wrap;rounded=0;" parent="1" vertex="1">
          <mxGeometry x="590" y="-240" width="60" height="30" as="geometry" />
        </mxCell>
        <mxCell id="tb5FULyi-qziSNYO-h4u-155" value="Phiếu giao hàng" style="text;html=1;strokeColor=none;fillColor=none;align=center;verticalAlign=middle;whiteSpace=wrap;rounded=0;" parent="1" vertex="1">
          <mxGeometry x="662.5" y="-310" width="60" height="30" as="geometry" />
        </mxCell>
        <mxCell id="tb5FULyi-qziSNYO-h4u-156" value="Thông tin bán hàng" style="text;html=1;strokeColor=none;fillColor=none;align=center;verticalAlign=middle;whiteSpace=wrap;rounded=0;" parent="1" vertex="1">
          <mxGeometry x="443.5" y="-240" width="60" height="30" as="geometry" />
        </mxCell>
      </root>
    </mxGraphModel>
  </diagram>
  <diagram id="Gx8GTEcQcXRhSG-fnGew" name="Trang-3">
    <mxGraphModel dx="1105" dy="1453" grid="1" gridSize="10" guides="1" tooltips="1" connect="1" arrows="1" fold="1" page="1" pageScale="1" pageWidth="1100" pageHeight="850" math="0" shadow="0">
      <root>
        <mxCell id="0" />
        <mxCell id="1" parent="0" />
        <mxCell id="iWL3mGePXXHznnoXvbA8-6" value="" style="ellipse;whiteSpace=wrap;html=1;aspect=fixed;" parent="1" vertex="1">
          <mxGeometry x="468" y="-345" width="80" height="80" as="geometry" />
        </mxCell>
        <mxCell id="aPofVyZZS1_2nbe75tWy-6" value="" style="edgeStyle=orthogonalEdgeStyle;rounded=0;orthogonalLoop=1;jettySize=auto;html=1;entryX=0;entryY=0.5;entryDx=0;entryDy=0;" parent="1" source="iWL3mGePXXHznnoXvbA8-7" target="iWL3mGePXXHznnoXvbA8-6" edge="1">
          <mxGeometry relative="1" as="geometry">
            <Array as="points">
              <mxPoint x="299" y="-340" />
              <mxPoint x="390" y="-340" />
              <mxPoint x="390" y="-385" />
            </Array>
          </mxGeometry>
        </mxCell>
        <mxCell id="aPofVyZZS1_2nbe75tWy-10" style="edgeStyle=orthogonalEdgeStyle;rounded=0;orthogonalLoop=1;jettySize=auto;html=1;exitX=1;exitY=0.25;exitDx=0;exitDy=0;entryX=0;entryY=1;entryDx=0;entryDy=0;" parent="1" source="iWL3mGePXXHznnoXvbA8-7" target="iWL3mGePXXHznnoXvbA8-6" edge="1">
          <mxGeometry relative="1" as="geometry" />
        </mxCell>
        <mxCell id="iWL3mGePXXHznnoXvbA8-7" value="KHÁCH HÀNG" style="whiteSpace=wrap;align=center;verticalAlign=middle;fontStyle=1;strokeWidth=3;fillColor=#FFFFCC;" parent="1" vertex="1">
          <mxGeometry x="254" y="-325" width="90" height="60" as="geometry" />
        </mxCell>
        <mxCell id="iWL3mGePXXHznnoXvbA8-8" value="" style="endArrow=none;html=1;rounded=0;exitX=0.038;exitY=0.28;exitDx=0;exitDy=0;exitPerimeter=0;entryX=0.948;entryY=0.28;entryDx=0;entryDy=0;entryPerimeter=0;" parent="1" source="iWL3mGePXXHznnoXvbA8-6" target="iWL3mGePXXHznnoXvbA8-6" edge="1">
          <mxGeometry width="50" height="50" relative="1" as="geometry">
            <mxPoint x="738" y="-150" as="sourcePoint" />
            <mxPoint x="788" y="-200" as="targetPoint" />
          </mxGeometry>
        </mxCell>
        <mxCell id="iWL3mGePXXHznnoXvbA8-9" value="1.1" style="text;html=1;strokeColor=none;fillColor=none;align=center;verticalAlign=middle;whiteSpace=wrap;rounded=0;" parent="1" vertex="1">
          <mxGeometry x="476" y="-345" width="60" height="30" as="geometry" />
        </mxCell>
        <mxCell id="c-cdw_HyhokvD9hvCGfE-2" value="" style="ellipse;whiteSpace=wrap;html=1;aspect=fixed;" parent="1" vertex="1">
          <mxGeometry x="624" y="-332.5" width="80" height="80" as="geometry" />
        </mxCell>
        <mxCell id="8oAgA_Hp7Mblh5M2ibug-6" value="" style="endArrow=none;html=1;rounded=0;entryX=0.063;entryY=0.266;entryDx=0;entryDy=0;entryPerimeter=0;exitX=0.95;exitY=0.266;exitDx=0;exitDy=0;exitPerimeter=0;" parent="1" source="c-cdw_HyhokvD9hvCGfE-2" target="c-cdw_HyhokvD9hvCGfE-2" edge="1">
          <mxGeometry width="50" height="50" relative="1" as="geometry">
            <mxPoint x="540" y="-212.5" as="sourcePoint" />
            <mxPoint x="590" y="-262.5" as="targetPoint" />
          </mxGeometry>
        </mxCell>
        <mxCell id="8oAgA_Hp7Mblh5M2ibug-7" value="1" style="text;html=1;strokeColor=none;fillColor=none;align=center;verticalAlign=middle;whiteSpace=wrap;rounded=0;" parent="1" vertex="1">
          <mxGeometry x="634" y="-337.5" width="60" height="30" as="geometry" />
        </mxCell>
        <mxCell id="aPofVyZZS1_2nbe75tWy-1" value="Xử lý bán nước rau má" style="text;html=1;strokeColor=none;fillColor=none;align=center;verticalAlign=middle;whiteSpace=wrap;rounded=0;" parent="1" vertex="1">
          <mxGeometry x="634" y="-297.5" width="60" height="30" as="geometry" />
        </mxCell>
        <mxCell id="aPofVyZZS1_2nbe75tWy-4" value="" style="endArrow=none;dashed=1;html=1;rounded=0;entryX=0;entryY=0.75;entryDx=0;entryDy=0;exitX=0.995;exitY=0.39;exitDx=0;exitDy=0;exitPerimeter=0;" parent="1" target="8oAgA_Hp7Mblh5M2ibug-7" edge="1" source="iWL3mGePXXHznnoXvbA8-6">
          <mxGeometry width="50" height="50" relative="1" as="geometry">
            <mxPoint x="560" y="-380" as="sourcePoint" />
            <mxPoint x="660" y="-240" as="targetPoint" />
          </mxGeometry>
        </mxCell>
        <mxCell id="MKpnH-vWclfTP5a51TQ4-1" value="Xử lý bán hàng" style="text;html=1;strokeColor=none;fillColor=none;align=center;verticalAlign=middle;whiteSpace=wrap;rounded=0;" parent="1" vertex="1">
          <mxGeometry x="478.25" y="-310" width="60" height="30" as="geometry" />
        </mxCell>
        <mxCell id="FSO2ZpXwsTtEZQH_AtZj-11" style="edgeStyle=orthogonalEdgeStyle;rounded=0;orthogonalLoop=1;jettySize=auto;html=1;exitX=1;exitY=0.25;exitDx=0;exitDy=0;entryX=0;entryY=0.5;entryDx=0;entryDy=0;" parent="1" source="MKpnH-vWclfTP5a51TQ4-3" target="MKpnH-vWclfTP5a51TQ4-4" edge="1">
          <mxGeometry relative="1" as="geometry" />
        </mxCell>
        <mxCell id="FSO2ZpXwsTtEZQH_AtZj-12" style="edgeStyle=orthogonalEdgeStyle;rounded=0;orthogonalLoop=1;jettySize=auto;html=1;exitX=1;exitY=0.5;exitDx=0;exitDy=0;entryX=0.5;entryY=1;entryDx=0;entryDy=0;" parent="1" source="MKpnH-vWclfTP5a51TQ4-3" target="MKpnH-vWclfTP5a51TQ4-4" edge="1">
          <mxGeometry relative="1" as="geometry" />
        </mxCell>
        <mxCell id="FSO2ZpXwsTtEZQH_AtZj-13" style="edgeStyle=orthogonalEdgeStyle;rounded=0;orthogonalLoop=1;jettySize=auto;html=1;exitX=0.75;exitY=1;exitDx=0;exitDy=0;entryX=0;entryY=0.5;entryDx=0;entryDy=0;" parent="1" source="MKpnH-vWclfTP5a51TQ4-3" target="MKpnH-vWclfTP5a51TQ4-5" edge="1">
          <mxGeometry relative="1" as="geometry" />
        </mxCell>
        <mxCell id="MKpnH-vWclfTP5a51TQ4-3" value="NHÀ CUNG CẤP" style="rounded=0;whiteSpace=wrap;html=1;fillColor=#FFFFCC;strokeColor=#000000;" parent="1" vertex="1">
          <mxGeometry x="254" width="120" height="60" as="geometry" />
        </mxCell>
        <mxCell id="MKpnH-vWclfTP5a51TQ4-4" value="" style="ellipse;whiteSpace=wrap;html=1;aspect=fixed;" parent="1" vertex="1">
          <mxGeometry x="478" y="-90" width="80" height="80" as="geometry" />
        </mxCell>
        <mxCell id="MKpnH-vWclfTP5a51TQ4-5" value="" style="ellipse;whiteSpace=wrap;html=1;aspect=fixed;" parent="1" vertex="1">
          <mxGeometry x="480" y="60" width="80" height="80" as="geometry" />
        </mxCell>
        <mxCell id="MKpnH-vWclfTP5a51TQ4-6" value="" style="endArrow=none;html=1;rounded=0;entryX=0.04;entryY=0.281;entryDx=0;entryDy=0;entryPerimeter=0;exitX=0.93;exitY=0.274;exitDx=0;exitDy=0;exitPerimeter=0;" parent="1" source="MKpnH-vWclfTP5a51TQ4-4" target="MKpnH-vWclfTP5a51TQ4-4" edge="1">
          <mxGeometry width="50" height="50" relative="1" as="geometry">
            <mxPoint x="400" y="60" as="sourcePoint" />
            <mxPoint x="450" y="10" as="targetPoint" />
          </mxGeometry>
        </mxCell>
        <mxCell id="MKpnH-vWclfTP5a51TQ4-7" value="" style="endArrow=none;html=1;rounded=0;exitX=0.015;exitY=0.287;exitDx=0;exitDy=0;exitPerimeter=0;entryX=0.932;entryY=0.273;entryDx=0;entryDy=0;entryPerimeter=0;" parent="1" source="MKpnH-vWclfTP5a51TQ4-5" target="MKpnH-vWclfTP5a51TQ4-5" edge="1">
          <mxGeometry width="50" height="50" relative="1" as="geometry">
            <mxPoint x="450" y="50" as="sourcePoint" />
            <mxPoint x="500" as="targetPoint" />
          </mxGeometry>
        </mxCell>
        <mxCell id="MKpnH-vWclfTP5a51TQ4-8" value="2.1" style="text;html=1;strokeColor=none;fillColor=none;align=center;verticalAlign=middle;whiteSpace=wrap;rounded=0;" parent="1" vertex="1">
          <mxGeometry x="488" y="-90" width="60" height="30" as="geometry" />
        </mxCell>
        <mxCell id="MKpnH-vWclfTP5a51TQ4-9" value="2.2" style="text;html=1;strokeColor=none;fillColor=none;align=center;verticalAlign=middle;whiteSpace=wrap;rounded=0;" parent="1" vertex="1">
          <mxGeometry x="488" y="60" width="60" height="30" as="geometry" />
        </mxCell>
        <mxCell id="MKpnH-vWclfTP5a51TQ4-10" value="Xử lý DDH&amp;nbsp;" style="text;html=1;strokeColor=none;fillColor=none;align=center;verticalAlign=middle;whiteSpace=wrap;rounded=0;" parent="1" vertex="1">
          <mxGeometry x="488" y="-60" width="60" height="30" as="geometry" />
        </mxCell>
        <mxCell id="FSO2ZpXwsTtEZQH_AtZj-14" style="edgeStyle=orthogonalEdgeStyle;rounded=0;orthogonalLoop=1;jettySize=auto;html=1;exitX=0;exitY=1;exitDx=0;exitDy=0;entryX=0.25;entryY=1;entryDx=0;entryDy=0;" parent="1" source="MKpnH-vWclfTP5a51TQ4-11" target="MKpnH-vWclfTP5a51TQ4-3" edge="1">
          <mxGeometry relative="1" as="geometry">
            <Array as="points">
              <mxPoint x="490" y="140" />
              <mxPoint x="284" y="140" />
            </Array>
          </mxGeometry>
        </mxCell>
        <mxCell id="MKpnH-vWclfTP5a51TQ4-11" value="Xử lý giao hàng" style="text;html=1;strokeColor=none;fillColor=none;align=center;verticalAlign=middle;whiteSpace=wrap;rounded=0;" parent="1" vertex="1">
          <mxGeometry x="490.25" y="90" width="60" height="30" as="geometry" />
        </mxCell>
        <mxCell id="MKpnH-vWclfTP5a51TQ4-12" value="" style="ellipse;whiteSpace=wrap;html=1;aspect=fixed;" parent="1" vertex="1">
          <mxGeometry x="650" y="-10" width="80" height="80" as="geometry" />
        </mxCell>
        <mxCell id="MKpnH-vWclfTP5a51TQ4-13" value="" style="endArrow=none;html=1;rounded=0;entryX=0.974;entryY=0.288;entryDx=0;entryDy=0;entryPerimeter=0;" parent="1" target="MKpnH-vWclfTP5a51TQ4-12" edge="1">
          <mxGeometry width="50" height="50" relative="1" as="geometry">
            <mxPoint x="651" y="15" as="sourcePoint" />
            <mxPoint x="666" y="90" as="targetPoint" />
          </mxGeometry>
        </mxCell>
        <mxCell id="MKpnH-vWclfTP5a51TQ4-14" value="2" style="text;html=1;strokeColor=none;fillColor=none;align=center;verticalAlign=middle;whiteSpace=wrap;rounded=0;" parent="1" vertex="1">
          <mxGeometry x="660" y="-10" width="60" height="30" as="geometry" />
        </mxCell>
        <mxCell id="FSO2ZpXwsTtEZQH_AtZj-6" value="Xử lý DDH từ NCC" style="text;html=1;strokeColor=none;fillColor=none;align=center;verticalAlign=middle;whiteSpace=wrap;rounded=0;" parent="1" vertex="1">
          <mxGeometry x="660" y="20" width="60" height="30" as="geometry" />
        </mxCell>
        <mxCell id="FSO2ZpXwsTtEZQH_AtZj-7" value="" style="endArrow=none;dashed=1;html=1;rounded=0;entryX=1;entryY=0.5;entryDx=0;entryDy=0;exitX=1;exitY=0.5;exitDx=0;exitDy=0;" parent="1" source="MKpnH-vWclfTP5a51TQ4-5" target="MKpnH-vWclfTP5a51TQ4-4" edge="1">
          <mxGeometry width="50" height="50" relative="1" as="geometry">
            <mxPoint x="500" y="40" as="sourcePoint" />
            <mxPoint x="550" y="-10" as="targetPoint" />
            <Array as="points">
              <mxPoint x="570" y="20" />
            </Array>
          </mxGeometry>
        </mxCell>
        <mxCell id="FSO2ZpXwsTtEZQH_AtZj-8" value="" style="endArrow=none;dashed=1;html=1;rounded=0;entryX=0;entryY=0.5;entryDx=0;entryDy=0;exitX=0;exitY=0.5;exitDx=0;exitDy=0;" parent="1" source="MKpnH-vWclfTP5a51TQ4-5" target="MKpnH-vWclfTP5a51TQ4-4" edge="1">
          <mxGeometry width="50" height="50" relative="1" as="geometry">
            <mxPoint x="420" y="90" as="sourcePoint" />
            <mxPoint x="470" y="40" as="targetPoint" />
            <Array as="points">
              <mxPoint x="470" y="20" />
            </Array>
          </mxGeometry>
        </mxCell>
        <mxCell id="FSO2ZpXwsTtEZQH_AtZj-9" value="" style="endArrow=none;dashed=1;html=1;rounded=0;entryX=1;entryY=0.5;entryDx=0;entryDy=0;exitX=0;exitY=0.5;exitDx=0;exitDy=0;" parent="1" source="MKpnH-vWclfTP5a51TQ4-12" target="MKpnH-vWclfTP5a51TQ4-4" edge="1">
          <mxGeometry width="50" height="50" relative="1" as="geometry">
            <mxPoint x="480" y="190" as="sourcePoint" />
            <mxPoint x="530" y="140" as="targetPoint" />
          </mxGeometry>
        </mxCell>
        <mxCell id="FSO2ZpXwsTtEZQH_AtZj-10" value="" style="endArrow=none;dashed=1;html=1;rounded=0;entryX=0;entryY=0.5;entryDx=0;entryDy=0;exitX=1;exitY=0.5;exitDx=0;exitDy=0;" parent="1" source="MKpnH-vWclfTP5a51TQ4-5" target="MKpnH-vWclfTP5a51TQ4-12" edge="1">
          <mxGeometry width="50" height="50" relative="1" as="geometry">
            <mxPoint x="560" y="150" as="sourcePoint" />
            <mxPoint x="610" y="100" as="targetPoint" />
          </mxGeometry>
        </mxCell>
        <mxCell id="FSO2ZpXwsTtEZQH_AtZj-33" style="edgeStyle=orthogonalEdgeStyle;rounded=0;orthogonalLoop=1;jettySize=auto;html=1;exitX=1;exitY=0.25;exitDx=0;exitDy=0;entryX=0;entryY=0;entryDx=0;entryDy=0;" parent="1" source="FSO2ZpXwsTtEZQH_AtZj-15" target="FSO2ZpXwsTtEZQH_AtZj-20" edge="1">
          <mxGeometry relative="1" as="geometry" />
        </mxCell>
        <mxCell id="FSO2ZpXwsTtEZQH_AtZj-34" style="edgeStyle=orthogonalEdgeStyle;rounded=0;orthogonalLoop=1;jettySize=auto;html=1;exitX=1;exitY=0.75;exitDx=0;exitDy=0;entryX=0;entryY=1;entryDx=0;entryDy=0;" parent="1" source="FSO2ZpXwsTtEZQH_AtZj-15" target="FSO2ZpXwsTtEZQH_AtZj-20" edge="1">
          <mxGeometry relative="1" as="geometry" />
        </mxCell>
        <mxCell id="FSO2ZpXwsTtEZQH_AtZj-15" value="KHÁCH HÀNG" style="rounded=0;whiteSpace=wrap;html=1;fillColor=#FFFFCC;" parent="1" vertex="1">
          <mxGeometry x="140" y="330" width="120" height="60" as="geometry" />
        </mxCell>
        <mxCell id="FSO2ZpXwsTtEZQH_AtZj-36" style="edgeStyle=orthogonalEdgeStyle;rounded=0;orthogonalLoop=1;jettySize=auto;html=1;exitX=0;exitY=0.25;exitDx=0;exitDy=0;entryX=1.009;entryY=0.403;entryDx=0;entryDy=0;entryPerimeter=0;" parent="1" source="FSO2ZpXwsTtEZQH_AtZj-16" target="FSO2ZpXwsTtEZQH_AtZj-21" edge="1">
          <mxGeometry relative="1" as="geometry" />
        </mxCell>
        <mxCell id="OLSYpZaq1lPUqKF60mQf-1" style="edgeStyle=orthogonalEdgeStyle;rounded=0;orthogonalLoop=1;jettySize=auto;html=1;exitX=0;exitY=0.75;exitDx=0;exitDy=0;entryX=1;entryY=1;entryDx=0;entryDy=0;" parent="1" source="FSO2ZpXwsTtEZQH_AtZj-16" target="FSO2ZpXwsTtEZQH_AtZj-31" edge="1">
          <mxGeometry relative="1" as="geometry" />
        </mxCell>
        <mxCell id="FSO2ZpXwsTtEZQH_AtZj-16" value="NHÀ CUNG CẤP" style="rounded=0;whiteSpace=wrap;html=1;fillColor=#FFFFCC;" parent="1" vertex="1">
          <mxGeometry x="760" y="330" width="120" height="60" as="geometry" />
        </mxCell>
        <mxCell id="FSO2ZpXwsTtEZQH_AtZj-17" value="" style="ellipse;whiteSpace=wrap;html=1;aspect=fixed;" parent="1" vertex="1">
          <mxGeometry x="487" y="490" width="80" height="80" as="geometry" />
        </mxCell>
        <mxCell id="FSO2ZpXwsTtEZQH_AtZj-18" value="" style="endArrow=none;html=1;rounded=0;exitX=0.061;exitY=0.24;exitDx=0;exitDy=0;exitPerimeter=0;entryX=0.9;entryY=0.24;entryDx=0;entryDy=0;entryPerimeter=0;" parent="1" source="FSO2ZpXwsTtEZQH_AtZj-17" target="FSO2ZpXwsTtEZQH_AtZj-17" edge="1">
          <mxGeometry width="50" height="50" relative="1" as="geometry">
            <mxPoint x="550" y="510" as="sourcePoint" />
            <mxPoint x="600" y="460" as="targetPoint" />
          </mxGeometry>
        </mxCell>
        <mxCell id="FSO2ZpXwsTtEZQH_AtZj-19" value="3" style="text;html=1;strokeColor=none;fillColor=none;align=center;verticalAlign=middle;whiteSpace=wrap;rounded=0;" parent="1" vertex="1">
          <mxGeometry x="495" y="490" width="63" height="20" as="geometry" />
        </mxCell>
        <mxCell id="FSO2ZpXwsTtEZQH_AtZj-20" value="" style="ellipse;whiteSpace=wrap;html=1;aspect=fixed;" parent="1" vertex="1">
          <mxGeometry x="390" y="320" width="80" height="80" as="geometry" />
        </mxCell>
        <mxCell id="FSO2ZpXwsTtEZQH_AtZj-21" value="" style="ellipse;whiteSpace=wrap;html=1;aspect=fixed;" parent="1" vertex="1">
          <mxGeometry x="560" y="320" width="80" height="80" as="geometry" />
        </mxCell>
        <mxCell id="FSO2ZpXwsTtEZQH_AtZj-22" value="" style="endArrow=none;html=1;rounded=0;exitX=0.07;exitY=0.242;exitDx=0;exitDy=0;exitPerimeter=0;entryX=0.943;entryY=0.26;entryDx=0;entryDy=0;entryPerimeter=0;" parent="1" source="FSO2ZpXwsTtEZQH_AtZj-20" target="FSO2ZpXwsTtEZQH_AtZj-20" edge="1">
          <mxGeometry width="50" height="50" relative="1" as="geometry">
            <mxPoint x="420" y="450" as="sourcePoint" />
            <mxPoint x="470" y="400" as="targetPoint" />
          </mxGeometry>
        </mxCell>
        <mxCell id="FSO2ZpXwsTtEZQH_AtZj-23" value="" style="endArrow=none;html=1;rounded=0;exitX=0.064;exitY=0.26;exitDx=0;exitDy=0;exitPerimeter=0;entryX=0.927;entryY=0.251;entryDx=0;entryDy=0;entryPerimeter=0;" parent="1" source="FSO2ZpXwsTtEZQH_AtZj-21" target="FSO2ZpXwsTtEZQH_AtZj-21" edge="1">
          <mxGeometry width="50" height="50" relative="1" as="geometry">
            <mxPoint x="496" y="480" as="sourcePoint" />
            <mxPoint x="546" y="430" as="targetPoint" />
          </mxGeometry>
        </mxCell>
        <mxCell id="FSO2ZpXwsTtEZQH_AtZj-24" value="3.1" style="text;html=1;strokeColor=none;fillColor=none;align=center;verticalAlign=middle;whiteSpace=wrap;rounded=0;" parent="1" vertex="1">
          <mxGeometry x="400" y="320" width="60" height="30" as="geometry" />
        </mxCell>
        <mxCell id="FSO2ZpXwsTtEZQH_AtZj-25" value="3.2" style="text;html=1;strokeColor=none;fillColor=none;align=center;verticalAlign=middle;whiteSpace=wrap;rounded=0;" parent="1" vertex="1">
          <mxGeometry x="574" y="320" width="60" height="30" as="geometry" />
        </mxCell>
        <mxCell id="FSO2ZpXwsTtEZQH_AtZj-26" value="" style="endArrow=none;dashed=1;html=1;rounded=0;entryX=0;entryY=1;entryDx=0;entryDy=0;exitX=0.003;exitY=0.324;exitDx=0;exitDy=0;exitPerimeter=0;" parent="1" source="FSO2ZpXwsTtEZQH_AtZj-17" target="FSO2ZpXwsTtEZQH_AtZj-20" edge="1">
          <mxGeometry width="50" height="50" relative="1" as="geometry">
            <mxPoint x="310" y="490" as="sourcePoint" />
            <mxPoint x="360" y="440" as="targetPoint" />
          </mxGeometry>
        </mxCell>
        <mxCell id="FSO2ZpXwsTtEZQH_AtZj-27" value="" style="endArrow=none;dashed=1;html=1;rounded=0;entryX=0.945;entryY=0.803;entryDx=0;entryDy=0;entryPerimeter=0;exitX=1.037;exitY=0.375;exitDx=0;exitDy=0;exitPerimeter=0;" parent="1" source="FSO2ZpXwsTtEZQH_AtZj-17" target="FSO2ZpXwsTtEZQH_AtZj-21" edge="1">
          <mxGeometry width="50" height="50" relative="1" as="geometry">
            <mxPoint x="610" y="490" as="sourcePoint" />
            <mxPoint x="660" y="440" as="targetPoint" />
          </mxGeometry>
        </mxCell>
        <mxCell id="FSO2ZpXwsTtEZQH_AtZj-28" value="" style="endArrow=none;dashed=1;html=1;rounded=0;exitX=0.5;exitY=0;exitDx=0;exitDy=0;entryX=0.5;entryY=0;entryDx=0;entryDy=0;" parent="1" source="FSO2ZpXwsTtEZQH_AtZj-24" target="FSO2ZpXwsTtEZQH_AtZj-25" edge="1">
          <mxGeometry width="50" height="50" relative="1" as="geometry">
            <mxPoint x="420" y="270" as="sourcePoint" />
            <mxPoint x="470" y="220" as="targetPoint" />
            <Array as="points">
              <mxPoint x="520" y="300" />
            </Array>
          </mxGeometry>
        </mxCell>
        <mxCell id="FSO2ZpXwsTtEZQH_AtZj-29" value="" style="endArrow=none;dashed=1;html=1;rounded=0;exitX=0.5;exitY=1;exitDx=0;exitDy=0;entryX=0.5;entryY=1;entryDx=0;entryDy=0;" parent="1" source="FSO2ZpXwsTtEZQH_AtZj-20" target="FSO2ZpXwsTtEZQH_AtZj-21" edge="1">
          <mxGeometry width="50" height="50" relative="1" as="geometry">
            <mxPoint x="580" y="280" as="sourcePoint" />
            <mxPoint x="630" y="230" as="targetPoint" />
            <Array as="points">
              <mxPoint x="520" y="420" />
            </Array>
          </mxGeometry>
        </mxCell>
        <mxCell id="FSO2ZpXwsTtEZQH_AtZj-30" value="Xử lý doanh thu" style="text;html=1;strokeColor=none;fillColor=none;align=center;verticalAlign=middle;whiteSpace=wrap;rounded=0;" parent="1" vertex="1">
          <mxGeometry x="400" y="345" width="60" height="30" as="geometry" />
        </mxCell>
        <mxCell id="FSO2ZpXwsTtEZQH_AtZj-31" value="Xử lý hóa đơn từ NCC" style="text;html=1;strokeColor=none;fillColor=none;align=center;verticalAlign=middle;whiteSpace=wrap;rounded=0;" parent="1" vertex="1">
          <mxGeometry x="574" y="350" width="60" height="30" as="geometry" />
        </mxCell>
        <mxCell id="FSO2ZpXwsTtEZQH_AtZj-32" value="Xử lý kế toán" style="text;html=1;strokeColor=none;fillColor=none;align=center;verticalAlign=middle;whiteSpace=wrap;rounded=0;" parent="1" vertex="1">
          <mxGeometry x="495" y="520" width="60" height="30" as="geometry" />
        </mxCell>
      </root>
    </mxGraphModel>
  </diagram>
  <diagram id="YE3tx3P_zvyAWVF7Uewt" name="Trang-4">
    <mxGraphModel dx="2205" dy="603" grid="1" gridSize="10" guides="1" tooltips="1" connect="1" arrows="1" fold="1" page="1" pageScale="1" pageWidth="1100" pageHeight="850" math="0" shadow="0">
      <root>
        <mxCell id="0" />
        <mxCell id="1" parent="0" />
        <mxCell id="-XLs8ZtXJ-zerZYvh1pM-1" value="" style="ellipse;whiteSpace=wrap;html=1;aspect=fixed;" vertex="1" parent="1">
          <mxGeometry x="160" y="70" width="80" height="80" as="geometry" />
        </mxCell>
        <mxCell id="-XLs8ZtXJ-zerZYvh1pM-2" value="" style="endArrow=none;html=1;rounded=0;exitX=0.083;exitY=0.26;exitDx=0;exitDy=0;exitPerimeter=0;entryX=0.942;entryY=0.269;entryDx=0;entryDy=0;entryPerimeter=0;" edge="1" parent="1" source="-XLs8ZtXJ-zerZYvh1pM-1" target="-XLs8ZtXJ-zerZYvh1pM-1">
          <mxGeometry width="50" height="50" relative="1" as="geometry">
            <mxPoint x="290" y="150" as="sourcePoint" />
            <mxPoint x="340" y="100" as="targetPoint" />
          </mxGeometry>
        </mxCell>
        <mxCell id="-XLs8ZtXJ-zerZYvh1pM-3" value="1.1.1" style="text;html=1;strokeColor=none;fillColor=none;align=center;verticalAlign=middle;whiteSpace=wrap;rounded=0;" vertex="1" parent="1">
          <mxGeometry x="170" y="70" width="60" height="30" as="geometry" />
        </mxCell>
        <mxCell id="-XLs8ZtXJ-zerZYvh1pM-4" value="KHÁCH HÀNG" style="rounded=0;whiteSpace=wrap;html=1;" vertex="1" parent="1">
          <mxGeometry x="-20" y="120" width="120" height="60" as="geometry" />
        </mxCell>
        <mxCell id="-XLs8ZtXJ-zerZYvh1pM-5" value="Lập hóa đơn" style="text;html=1;strokeColor=none;fillColor=none;align=center;verticalAlign=middle;whiteSpace=wrap;rounded=0;" vertex="1" parent="1">
          <mxGeometry x="170" y="95" width="60" height="30" as="geometry" />
        </mxCell>
        <mxCell id="-XLs8ZtXJ-zerZYvh1pM-7" value="" style="ellipse;whiteSpace=wrap;html=1;aspect=fixed;" vertex="1" parent="1">
          <mxGeometry x="330" y="60" width="80" height="80" as="geometry" />
        </mxCell>
        <mxCell id="-XLs8ZtXJ-zerZYvh1pM-8" value="" style="endArrow=none;html=1;rounded=0;entryX=0.075;entryY=0.235;entryDx=0;entryDy=0;entryPerimeter=0;exitX=0.925;exitY=0.24;exitDx=0;exitDy=0;exitPerimeter=0;" edge="1" parent="1" source="-XLs8ZtXJ-zerZYvh1pM-7" target="-XLs8ZtXJ-zerZYvh1pM-7">
          <mxGeometry width="50" height="50" relative="1" as="geometry">
            <mxPoint x="290" y="160" as="sourcePoint" />
            <mxPoint x="340" y="110" as="targetPoint" />
          </mxGeometry>
        </mxCell>
        <mxCell id="-XLs8ZtXJ-zerZYvh1pM-9" value="1.1.2" style="text;html=1;strokeColor=none;fillColor=none;align=center;verticalAlign=middle;whiteSpace=wrap;rounded=0;" vertex="1" parent="1">
          <mxGeometry x="340" y="60" width="60" height="30" as="geometry" />
        </mxCell>
        <mxCell id="-XLs8ZtXJ-zerZYvh1pM-10" value="In hóa đơn" style="text;html=1;strokeColor=none;fillColor=none;align=center;verticalAlign=middle;whiteSpace=wrap;rounded=0;" vertex="1" parent="1">
          <mxGeometry x="340" y="85" width="60" height="30" as="geometry" />
        </mxCell>
        <mxCell id="K1L1FQIew0RJwFT8lEN0-4" value="" style="shape=partialRectangle;whiteSpace=wrap;html=1;left=0;right=0;fillColor=none;" vertex="1" parent="1">
          <mxGeometry x="210" y="180" width="120" height="30" as="geometry" />
        </mxCell>
        <mxCell id="K1L1FQIew0RJwFT8lEN0-5" value="&lt;font style=&quot;font-size: 14px;&quot;&gt;Hóa đơn xuất&lt;/font&gt;" style="text;strokeColor=none;fillColor=none;html=1;fontSize=24;fontStyle=1;verticalAlign=middle;align=center;" vertex="1" parent="1">
          <mxGeometry x="215" y="190" width="110" height="10" as="geometry" />
        </mxCell>
        <mxCell id="K1L1FQIew0RJwFT8lEN0-6" value="" style="endArrow=classic;html=1;rounded=0;entryX=0.425;entryY=0.006;entryDx=0;entryDy=0;entryPerimeter=0;exitX=0.713;exitY=0.973;exitDx=0;exitDy=0;exitPerimeter=0;" edge="1" parent="1" source="-XLs8ZtXJ-zerZYvh1pM-1" target="K1L1FQIew0RJwFT8lEN0-4">
          <mxGeometry width="50" height="50" relative="1" as="geometry">
            <mxPoint x="220" y="170" as="sourcePoint" />
            <mxPoint x="270" y="120" as="targetPoint" />
          </mxGeometry>
        </mxCell>
        <mxCell id="K1L1FQIew0RJwFT8lEN0-7" value="" style="endArrow=classic;html=1;rounded=0;entryX=0.037;entryY=0.715;entryDx=0;entryDy=0;entryPerimeter=0;" edge="1" parent="1" target="-XLs8ZtXJ-zerZYvh1pM-7">
          <mxGeometry width="50" height="50" relative="1" as="geometry">
            <mxPoint x="270" y="180" as="sourcePoint" />
            <mxPoint x="320" y="130" as="targetPoint" />
          </mxGeometry>
        </mxCell>
        <mxCell id="K1L1FQIew0RJwFT8lEN0-13" value="Dữ liệu hóa đơn" style="text;html=1;strokeColor=none;fillColor=none;align=center;verticalAlign=middle;whiteSpace=wrap;rounded=0;" vertex="1" parent="1">
          <mxGeometry x="145" y="160" width="110" height="30" as="geometry" />
        </mxCell>
        <mxCell id="K1L1FQIew0RJwFT8lEN0-16" value="Dữ liệu hóa đơn" style="text;html=1;strokeColor=none;fillColor=none;align=center;verticalAlign=middle;whiteSpace=wrap;rounded=0;" vertex="1" parent="1">
          <mxGeometry x="290" y="150" width="110" height="30" as="geometry" />
        </mxCell>
        <mxCell id="wkJZGupvRoS8OR368YWu-1" value="" style="endArrow=classic;html=1;rounded=0;exitX=1;exitY=0.5;exitDx=0;exitDy=0;entryX=0.064;entryY=0.724;entryDx=0;entryDy=0;entryPerimeter=0;" edge="1" parent="1" source="-XLs8ZtXJ-zerZYvh1pM-4" target="-XLs8ZtXJ-zerZYvh1pM-1">
          <mxGeometry width="50" height="50" relative="1" as="geometry">
            <mxPoint x="70" y="340" as="sourcePoint" />
            <mxPoint x="120" y="290" as="targetPoint" />
          </mxGeometry>
        </mxCell>
        <mxCell id="GRvpRXPtP6kZQeg2TqV_-1" value="NHÀ CUNG CẤP" style="rounded=0;whiteSpace=wrap;html=1;" vertex="1" parent="1">
          <mxGeometry x="-20" y="365" width="120" height="60" as="geometry" />
        </mxCell>
        <mxCell id="b4m4tYf40w8dUVjuUFHq-1" value="" style="endArrow=classic;html=1;rounded=0;exitX=1;exitY=0.5;exitDx=0;exitDy=0;" edge="1" parent="1" source="GRvpRXPtP6kZQeg2TqV_-1">
          <mxGeometry width="50" height="50" relative="1" as="geometry">
            <mxPoint x="120" y="420" as="sourcePoint" />
            <mxPoint x="150" y="360" as="targetPoint" />
          </mxGeometry>
        </mxCell>
        <mxCell id="b4m4tYf40w8dUVjuUFHq-2" value="" style="ellipse;whiteSpace=wrap;html=1;aspect=fixed;" vertex="1" parent="1">
          <mxGeometry x="145" y="310" width="80" height="80" as="geometry" />
        </mxCell>
        <mxCell id="b4m4tYf40w8dUVjuUFHq-3" value="" style="endArrow=none;html=1;rounded=0;exitX=0.004;exitY=0.352;exitDx=0;exitDy=0;exitPerimeter=0;entryX=0.971;entryY=0.333;entryDx=0;entryDy=0;entryPerimeter=0;" edge="1" parent="1" source="b4m4tYf40w8dUVjuUFHq-2" target="b4m4tYf40w8dUVjuUFHq-2">
          <mxGeometry width="50" height="50" relative="1" as="geometry">
            <mxPoint x="290" y="360" as="sourcePoint" />
            <mxPoint x="340" y="310" as="targetPoint" />
          </mxGeometry>
        </mxCell>
        <mxCell id="b4m4tYf40w8dUVjuUFHq-4" value="&lt;br&gt;&lt;br&gt;Lên lịch giao hàng" style="ellipse;whiteSpace=wrap;html=1;aspect=fixed;" vertex="1" parent="1">
          <mxGeometry x="150" y="450" width="80" height="80" as="geometry" />
        </mxCell>
        <mxCell id="b4m4tYf40w8dUVjuUFHq-5" value="" style="endArrow=none;html=1;rounded=0;exitX=0.004;exitY=0.352;exitDx=0;exitDy=0;exitPerimeter=0;entryX=0.971;entryY=0.333;entryDx=0;entryDy=0;entryPerimeter=0;" edge="1" parent="1" source="b4m4tYf40w8dUVjuUFHq-4" target="b4m4tYf40w8dUVjuUFHq-4">
          <mxGeometry width="50" height="50" relative="1" as="geometry">
            <mxPoint x="775" y="440" as="sourcePoint" />
            <mxPoint x="825" y="390" as="targetPoint" />
          </mxGeometry>
        </mxCell>
        <mxCell id="b4m4tYf40w8dUVjuUFHq-6" value="&lt;br&gt;Nhập hàng vào kho" style="ellipse;whiteSpace=wrap;html=1;aspect=fixed;" vertex="1" parent="1">
          <mxGeometry x="260" y="600" width="80" height="80" as="geometry" />
        </mxCell>
        <mxCell id="b4m4tYf40w8dUVjuUFHq-7" value="" style="endArrow=none;html=1;rounded=0;exitX=0.004;exitY=0.352;exitDx=0;exitDy=0;exitPerimeter=0;entryX=0.971;entryY=0.333;entryDx=0;entryDy=0;entryPerimeter=0;" edge="1" parent="1" source="b4m4tYf40w8dUVjuUFHq-6" target="b4m4tYf40w8dUVjuUFHq-6">
          <mxGeometry width="50" height="50" relative="1" as="geometry">
            <mxPoint x="392.5" y="620" as="sourcePoint" />
            <mxPoint x="442.5" y="570" as="targetPoint" />
          </mxGeometry>
        </mxCell>
        <mxCell id="b4m4tYf40w8dUVjuUFHq-10" value="" style="ellipse;whiteSpace=wrap;html=1;aspect=fixed;" vertex="1" parent="1">
          <mxGeometry x="325" y="470" width="80" height="80" as="geometry" />
        </mxCell>
        <mxCell id="b4m4tYf40w8dUVjuUFHq-11" value="" style="endArrow=none;html=1;rounded=0;exitX=0.004;exitY=0.352;exitDx=0;exitDy=0;exitPerimeter=0;entryX=0.971;entryY=0.333;entryDx=0;entryDy=0;entryPerimeter=0;" edge="1" parent="1" source="b4m4tYf40w8dUVjuUFHq-10" target="b4m4tYf40w8dUVjuUFHq-10">
          <mxGeometry width="50" height="50" relative="1" as="geometry">
            <mxPoint x="470" y="520" as="sourcePoint" />
            <mxPoint x="520" y="470" as="targetPoint" />
          </mxGeometry>
        </mxCell>
        <mxCell id="b4m4tYf40w8dUVjuUFHq-12" value="Kiểm tra và lưu đơn hàng" style="text;html=1;strokeColor=none;fillColor=none;align=center;verticalAlign=middle;whiteSpace=wrap;rounded=0;" vertex="1" parent="1">
          <mxGeometry x="155" y="350" width="60" height="30" as="geometry" />
        </mxCell>
        <mxCell id="nBJcqD9dYi5y2vuRJk9q-1" value="2.1.1" style="text;html=1;strokeColor=none;fillColor=none;align=center;verticalAlign=middle;whiteSpace=wrap;rounded=0;" vertex="1" parent="1">
          <mxGeometry x="150" y="310" width="60" height="30" as="geometry" />
        </mxCell>
        <mxCell id="nBJcqD9dYi5y2vuRJk9q-2" value="" style="endArrow=classic;html=1;rounded=0;exitX=1;exitY=0.5;exitDx=0;exitDy=0;" edge="1" parent="1" source="b4m4tYf40w8dUVjuUFHq-2">
          <mxGeometry width="50" height="50" relative="1" as="geometry">
            <mxPoint x="240" y="430" as="sourcePoint" />
            <mxPoint x="260" y="380" as="targetPoint" />
          </mxGeometry>
        </mxCell>
        <mxCell id="nBJcqD9dYi5y2vuRJk9q-3" value="Đơn hàng" style="shape=partialRectangle;whiteSpace=wrap;html=1;left=0;right=0;fillColor=none;" vertex="1" parent="1">
          <mxGeometry x="250" y="380" width="120" height="40" as="geometry" />
        </mxCell>
        <mxCell id="Ig-CDI9KWOtYKmA_wlLc-1" value="" style="endArrow=classic;html=1;rounded=0;exitX=1;exitY=0.5;exitDx=0;exitDy=0;" edge="1" parent="1" source="GRvpRXPtP6kZQeg2TqV_-1">
          <mxGeometry width="50" height="50" relative="1" as="geometry">
            <mxPoint x="150" y="510" as="sourcePoint" />
            <mxPoint x="150" y="480" as="targetPoint" />
          </mxGeometry>
        </mxCell>
        <mxCell id="Ig-CDI9KWOtYKmA_wlLc-2" value="2.2.1" style="text;html=1;strokeColor=none;fillColor=none;align=center;verticalAlign=middle;whiteSpace=wrap;rounded=0;" vertex="1" parent="1">
          <mxGeometry x="160" y="450" width="60" height="30" as="geometry" />
        </mxCell>
        <mxCell id="Ig-CDI9KWOtYKmA_wlLc-3" value="" style="endArrow=classic;html=1;rounded=0;exitX=0.449;exitY=1.008;exitDx=0;exitDy=0;exitPerimeter=0;" edge="1" parent="1" source="nBJcqD9dYi5y2vuRJk9q-3" target="b4m4tYf40w8dUVjuUFHq-4">
          <mxGeometry width="50" height="50" relative="1" as="geometry">
            <mxPoint x="380" y="490" as="sourcePoint" />
            <mxPoint x="430" y="440" as="targetPoint" />
          </mxGeometry>
        </mxCell>
        <mxCell id="Ig-CDI9KWOtYKmA_wlLc-4" value="Đơn hàng" style="text;html=1;strokeColor=none;fillColor=none;align=center;verticalAlign=middle;whiteSpace=wrap;rounded=0;" vertex="1" parent="1">
          <mxGeometry x="230" y="335" width="60" height="30" as="geometry" />
        </mxCell>
        <mxCell id="Ig-CDI9KWOtYKmA_wlLc-7" value="Đơn hàng chưa giao" style="text;html=1;strokeColor=none;fillColor=none;align=center;verticalAlign=middle;whiteSpace=wrap;rounded=0;" vertex="1" parent="1">
          <mxGeometry x="185" y="420" width="85" height="30" as="geometry" />
        </mxCell>
        <mxCell id="Ig-CDI9KWOtYKmA_wlLc-8" value="" style="endArrow=classic;html=1;rounded=0;exitX=0.5;exitY=1;exitDx=0;exitDy=0;" edge="1" parent="1" source="nBJcqD9dYi5y2vuRJk9q-3">
          <mxGeometry width="50" height="50" relative="1" as="geometry">
            <mxPoint x="400" y="520" as="sourcePoint" />
            <mxPoint x="360" y="470" as="targetPoint" />
          </mxGeometry>
        </mxCell>
        <mxCell id="Ig-CDI9KWOtYKmA_wlLc-9" value="2.2.2" style="text;html=1;strokeColor=none;fillColor=none;align=center;verticalAlign=middle;whiteSpace=wrap;rounded=0;" vertex="1" parent="1">
          <mxGeometry x="335" y="470" width="60" height="30" as="geometry" />
        </mxCell>
        <mxCell id="Ig-CDI9KWOtYKmA_wlLc-10" value="&lt;br&gt;Lập hóa đơn giao DDH" style="text;html=1;strokeColor=none;fillColor=none;align=center;verticalAlign=middle;whiteSpace=wrap;rounded=0;" vertex="1" parent="1">
          <mxGeometry x="335" y="500" width="60" height="30" as="geometry" />
        </mxCell>
        <mxCell id="Ig-CDI9KWOtYKmA_wlLc-11" value="2.2.3" style="text;html=1;strokeColor=none;fillColor=none;align=center;verticalAlign=middle;whiteSpace=wrap;rounded=0;" vertex="1" parent="1">
          <mxGeometry x="270" y="600" width="60" height="30" as="geometry" />
        </mxCell>
        <mxCell id="Ig-CDI9KWOtYKmA_wlLc-12" value="Kho" style="shape=partialRectangle;whiteSpace=wrap;html=1;left=0;right=0;fillColor=none;" vertex="1" parent="1">
          <mxGeometry x="395" y="710" width="80" height="30" as="geometry" />
        </mxCell>
        <mxCell id="Ig-CDI9KWOtYKmA_wlLc-13" value="" style="endArrow=classic;html=1;rounded=0;exitX=0;exitY=0.75;exitDx=0;exitDy=0;" edge="1" parent="1" source="Ig-CDI9KWOtYKmA_wlLc-12">
          <mxGeometry width="50" height="50" relative="1" as="geometry">
            <mxPoint x="425" y="580" as="sourcePoint" />
            <mxPoint x="342.44896791882184" y="637.9801083636551" as="targetPoint" />
          </mxGeometry>
        </mxCell>
        <mxCell id="Ig-CDI9KWOtYKmA_wlLc-14" value="Thông tin hàng trong kho" style="text;html=1;strokeColor=none;fillColor=none;align=center;verticalAlign=middle;whiteSpace=wrap;rounded=0;" vertex="1" parent="1">
          <mxGeometry x="370" y="670" width="85" height="30" as="geometry" />
        </mxCell>
        <mxCell id="Ig-CDI9KWOtYKmA_wlLc-17" value="" style="endArrow=classic;html=1;rounded=0;exitX=0.424;exitY=1.027;exitDx=0;exitDy=0;entryX=0.671;entryY=0.048;entryDx=0;entryDy=0;entryPerimeter=0;exitPerimeter=0;" edge="1" parent="1" source="b4m4tYf40w8dUVjuUFHq-10" target="Ig-CDI9KWOtYKmA_wlLc-11">
          <mxGeometry width="50" height="50" relative="1" as="geometry">
            <mxPoint x="140" y="690" as="sourcePoint" />
            <mxPoint x="190" y="640" as="targetPoint" />
          </mxGeometry>
        </mxCell>
        <mxCell id="Ig-CDI9KWOtYKmA_wlLc-18" value="" style="endArrow=classic;html=1;rounded=0;exitX=0.715;exitY=0.981;exitDx=0;exitDy=0;exitPerimeter=0;entryX=0;entryY=0.25;entryDx=0;entryDy=0;" edge="1" parent="1" source="b4m4tYf40w8dUVjuUFHq-4" target="Ig-CDI9KWOtYKmA_wlLc-11">
          <mxGeometry width="50" height="50" relative="1" as="geometry">
            <mxPoint x="190" y="610" as="sourcePoint" />
            <mxPoint x="240" y="560" as="targetPoint" />
          </mxGeometry>
        </mxCell>
        <mxCell id="Ig-CDI9KWOtYKmA_wlLc-19" value="Số&lt;br&gt;&amp;nbsp;liệu&lt;br&gt;&amp;nbsp;tồn&lt;br&gt;kho" style="text;html=1;strokeColor=none;fillColor=none;align=center;verticalAlign=middle;whiteSpace=wrap;rounded=0;" vertex="1" parent="1">
          <mxGeometry x="330" y="550" width="150" height="90" as="geometry" />
        </mxCell>
        <mxCell id="Ig-CDI9KWOtYKmA_wlLc-20" value="Đơn hàng sẽ giao" style="text;html=1;strokeColor=none;fillColor=none;align=center;verticalAlign=middle;whiteSpace=wrap;rounded=0;" vertex="1" parent="1">
          <mxGeometry x="302.5" y="415" width="135" height="30" as="geometry" />
        </mxCell>
        <mxCell id="Ig-CDI9KWOtYKmA_wlLc-21" value="2.2.4&lt;br&gt;&lt;br&gt;&lt;br&gt;Kiểm kê tồn kho" style="ellipse;whiteSpace=wrap;html=1;aspect=fixed;" vertex="1" parent="1">
          <mxGeometry x="450" y="570" width="80" height="80" as="geometry" />
        </mxCell>
        <mxCell id="Ig-CDI9KWOtYKmA_wlLc-22" value="" style="endArrow=none;html=1;rounded=0;exitX=0.004;exitY=0.352;exitDx=0;exitDy=0;exitPerimeter=0;entryX=0.971;entryY=0.333;entryDx=0;entryDy=0;entryPerimeter=0;" edge="1" parent="1" source="Ig-CDI9KWOtYKmA_wlLc-21" target="Ig-CDI9KWOtYKmA_wlLc-21">
          <mxGeometry width="50" height="50" relative="1" as="geometry">
            <mxPoint x="265" y="695" as="sourcePoint" />
            <mxPoint x="315" y="645" as="targetPoint" />
          </mxGeometry>
        </mxCell>
        <mxCell id="Ig-CDI9KWOtYKmA_wlLc-23" value="" style="endArrow=classic;html=1;rounded=0;entryX=0.037;entryY=0.646;entryDx=0;entryDy=0;entryPerimeter=0;" edge="1" parent="1" target="Ig-CDI9KWOtYKmA_wlLc-21">
          <mxGeometry width="50" height="50" relative="1" as="geometry">
            <mxPoint x="340" y="630" as="sourcePoint" />
            <mxPoint x="390" y="580" as="targetPoint" />
          </mxGeometry>
        </mxCell>
        <mxCell id="Ig-CDI9KWOtYKmA_wlLc-25" value="" style="endArrow=classic;html=1;rounded=0;" edge="1" parent="1">
          <mxGeometry width="50" height="50" relative="1" as="geometry">
            <mxPoint x="400" y="500" as="sourcePoint" />
            <mxPoint x="520" y="460" as="targetPoint" />
          </mxGeometry>
        </mxCell>
        <mxCell id="Ig-CDI9KWOtYKmA_wlLc-26" value="Hóa đơn xuất" style="shape=partialRectangle;whiteSpace=wrap;html=1;left=0;right=0;fillColor=none;" vertex="1" parent="1">
          <mxGeometry x="520" y="445" width="120" height="25" as="geometry" />
        </mxCell>
        <mxCell id="Ig-CDI9KWOtYKmA_wlLc-27" value="Hóa đơn giao hàng" style="text;html=1;strokeColor=none;fillColor=none;align=center;verticalAlign=middle;whiteSpace=wrap;rounded=0;" vertex="1" parent="1">
          <mxGeometry x="475" y="475" width="110" height="30" as="geometry" />
        </mxCell>
        <mxCell id="-xmp6bMMSQ4zcMiZwaVr-2" value="KHÁCH HÀNG" style="rounded=0;whiteSpace=wrap;html=1;" vertex="1" parent="1">
          <mxGeometry x="-30" y="900" width="120" height="60" as="geometry" />
        </mxCell>
        <mxCell id="80ONWF0SorXwu-88ALfN-1" value="" style="endArrow=classic;html=1;rounded=0;entryX=0.75;entryY=0;entryDx=0;entryDy=0;" edge="1" parent="1" target="-XLs8ZtXJ-zerZYvh1pM-4">
          <mxGeometry width="50" height="50" relative="1" as="geometry">
            <mxPoint x="380" y="60" as="sourcePoint" />
            <mxPoint x="90" y="40" as="targetPoint" />
            <Array as="points">
              <mxPoint x="240" y="40" />
            </Array>
          </mxGeometry>
        </mxCell>
        <mxCell id="80ONWF0SorXwu-88ALfN-2" value="" style="endArrow=classic;html=1;rounded=0;entryX=0.5;entryY=0;entryDx=0;entryDy=0;" edge="1" parent="1" target="GRvpRXPtP6kZQeg2TqV_-1">
          <mxGeometry width="50" height="50" relative="1" as="geometry">
            <mxPoint x="400" y="495" as="sourcePoint" />
            <mxPoint x="450" y="207.9999796549479" as="targetPoint" />
            <Array as="points">
              <mxPoint x="490" y="270" />
              <mxPoint x="140" y="260" />
            </Array>
          </mxGeometry>
        </mxCell>
        <mxCell id="80ONWF0SorXwu-88ALfN-5" value="Thanh toán cho nhà cung cấp" style="text;html=1;strokeColor=none;fillColor=none;align=center;verticalAlign=middle;whiteSpace=wrap;rounded=0;" vertex="1" parent="1">
          <mxGeometry x="220" y="260" width="180" height="30" as="geometry" />
        </mxCell>
        <mxCell id="Ahn7gpv28-qftTd6bZRl-1" value="" style="ellipse;whiteSpace=wrap;html=1;aspect=fixed;" vertex="1" parent="1">
          <mxGeometry x="170" y="810" width="80" height="80" as="geometry" />
        </mxCell>
        <mxCell id="Ahn7gpv28-qftTd6bZRl-2" value="" style="endArrow=none;html=1;rounded=0;exitX=0.004;exitY=0.352;exitDx=0;exitDy=0;exitPerimeter=0;entryX=0.971;entryY=0.333;entryDx=0;entryDy=0;entryPerimeter=0;" edge="1" parent="1" source="Ahn7gpv28-qftTd6bZRl-1" target="Ahn7gpv28-qftTd6bZRl-1">
          <mxGeometry width="50" height="50" relative="1" as="geometry">
            <mxPoint x="345" y="850" as="sourcePoint" />
            <mxPoint x="395" y="800" as="targetPoint" />
          </mxGeometry>
        </mxCell>
        <mxCell id="Ahn7gpv28-qftTd6bZRl-3" value="Tổng Doanh Thu (Tổng tiền của tất cả hóa đơn) theo ca" style="shape=partialRectangle;whiteSpace=wrap;html=1;left=0;right=0;fillColor=none;" vertex="1" parent="1">
          <mxGeometry x="317.5" y="910" width="120" height="60" as="geometry" />
        </mxCell>
        <mxCell id="Ahn7gpv28-qftTd6bZRl-4" value="" style="endArrow=classic;html=1;rounded=0;exitX=1;exitY=0.25;exitDx=0;exitDy=0;entryX=0;entryY=0.5;entryDx=0;entryDy=0;" edge="1" parent="1" source="-xmp6bMMSQ4zcMiZwaVr-2" target="Ahn7gpv28-qftTd6bZRl-1">
          <mxGeometry width="50" height="50" relative="1" as="geometry">
            <mxPoint x="130" y="940" as="sourcePoint" />
            <mxPoint x="180" y="890" as="targetPoint" />
          </mxGeometry>
        </mxCell>
        <mxCell id="Ahn7gpv28-qftTd6bZRl-5" value="Lưu hóa đơn" style="text;html=1;strokeColor=none;fillColor=none;align=center;verticalAlign=middle;whiteSpace=wrap;rounded=0;" vertex="1" parent="1">
          <mxGeometry x="180" y="840" width="60" height="30" as="geometry" />
        </mxCell>
        <mxCell id="Ahn7gpv28-qftTd6bZRl-6" value="" style="endArrow=classic;html=1;rounded=0;exitX=1.018;exitY=0.676;exitDx=0;exitDy=0;exitPerimeter=0;entryX=0.113;entryY=-0.034;entryDx=0;entryDy=0;entryPerimeter=0;" edge="1" parent="1" source="Ahn7gpv28-qftTd6bZRl-1" target="Ahn7gpv28-qftTd6bZRl-3">
          <mxGeometry width="50" height="50" relative="1" as="geometry">
            <mxPoint x="310" y="890" as="sourcePoint" />
            <mxPoint x="360" y="840" as="targetPoint" />
          </mxGeometry>
        </mxCell>
        <mxCell id="Kqw2FSEiZ-phS5DU5adG-1" value="3.1.1" style="text;html=1;strokeColor=none;fillColor=none;align=center;verticalAlign=middle;whiteSpace=wrap;rounded=0;" vertex="1" parent="1">
          <mxGeometry x="180" y="811" width="60" height="30" as="geometry" />
        </mxCell>
        <mxCell id="xyMe5joZob6pRn6lLpvJ-2" value="NHÀ CUNG CẤP" style="rounded=0;whiteSpace=wrap;html=1;" vertex="1" parent="1">
          <mxGeometry x="-30" y="1100" width="120" height="60" as="geometry" />
        </mxCell>
        <mxCell id="xyMe5joZob6pRn6lLpvJ-3" value="" style="endArrow=classic;html=1;rounded=0;exitX=1;exitY=0.5;exitDx=0;exitDy=0;" edge="1" parent="1" source="xyMe5joZob6pRn6lLpvJ-2">
          <mxGeometry width="50" height="50" relative="1" as="geometry">
            <mxPoint x="150" y="1160" as="sourcePoint" />
            <mxPoint x="160" y="1100" as="targetPoint" />
          </mxGeometry>
        </mxCell>
        <mxCell id="xyMe5joZob6pRn6lLpvJ-7" value="" style="ellipse;whiteSpace=wrap;html=1;aspect=fixed;" vertex="1" parent="1">
          <mxGeometry x="160" y="1060" width="80" height="80" as="geometry" />
        </mxCell>
        <mxCell id="xyMe5joZob6pRn6lLpvJ-8" value="" style="endArrow=none;html=1;rounded=0;exitX=0.004;exitY=0.352;exitDx=0;exitDy=0;exitPerimeter=0;entryX=0.971;entryY=0.333;entryDx=0;entryDy=0;entryPerimeter=0;" edge="1" parent="1" source="xyMe5joZob6pRn6lLpvJ-7" target="xyMe5joZob6pRn6lLpvJ-7">
          <mxGeometry width="50" height="50" relative="1" as="geometry">
            <mxPoint x="305" y="1110" as="sourcePoint" />
            <mxPoint x="355" y="1060" as="targetPoint" />
          </mxGeometry>
        </mxCell>
        <mxCell id="xyMe5joZob6pRn6lLpvJ-9" value="3.2.1" style="text;html=1;strokeColor=none;fillColor=none;align=center;verticalAlign=middle;whiteSpace=wrap;rounded=0;" vertex="1" parent="1">
          <mxGeometry x="170" y="1060" width="60" height="30" as="geometry" />
        </mxCell>
        <mxCell id="xyMe5joZob6pRn6lLpvJ-10" value="Lưu hóa đơn đã giao hàng" style="text;html=1;strokeColor=none;fillColor=none;align=center;verticalAlign=middle;whiteSpace=wrap;rounded=0;" vertex="1" parent="1">
          <mxGeometry x="170" y="1090" width="60" height="30" as="geometry" />
        </mxCell>
        <mxCell id="xyMe5joZob6pRn6lLpvJ-11" value="Vốn nhập hàng" style="shape=partialRectangle;whiteSpace=wrap;html=1;left=0;right=0;fillColor=none;" vertex="1" parent="1">
          <mxGeometry x="318" y="1140" width="120" height="60" as="geometry" />
        </mxCell>
        <mxCell id="xyMe5joZob6pRn6lLpvJ-12" value="" style="endArrow=classic;html=1;rounded=0;exitX=1;exitY=0.5;exitDx=0;exitDy=0;entryX=0.25;entryY=0;entryDx=0;entryDy=0;" edge="1" parent="1" source="xyMe5joZob6pRn6lLpvJ-7" target="xyMe5joZob6pRn6lLpvJ-11">
          <mxGeometry width="50" height="50" relative="1" as="geometry">
            <mxPoint x="340" y="1090" as="sourcePoint" />
            <mxPoint x="390" y="1040" as="targetPoint" />
          </mxGeometry>
        </mxCell>
      </root>
    </mxGraphModel>
  </diagram>
</mxfile>
